<svg width="15" height="84" viewBox="0 0 15 84" fill="none" xmlns="http://www.w3.org/2000/svg">
<path d="M13.636 8.342L11.17 8.342L11.17 3.194L8.506 3.194L8.506 7.046L6.112 7.046L6.112 3.194L1 3.194L1 0.115999L13.636 0.116L13.636 8.342ZM0.855999 14.5317C0.855999 13.5477 1.066 12.6597 1.486 11.8677C1.906 11.0877 2.506 10.4697 3.286 10.0137C4.066 9.56975 4.978 9.34775 6.022 9.34775C7.054 9.34775 7.96 9.57575 8.74 10.0317C9.532 10.4877 10.138 11.1117 10.558 11.9037C10.978 12.6957 11.188 13.5837 11.188 14.5677C11.188 15.5517 10.978 16.4397 10.558 17.2317C10.138 18.0237 9.532 18.6477 8.74 19.1038C7.96 19.5598 7.054 19.7878 6.022 19.7878C4.99 19.7878 4.078 19.5537 3.286 19.0857C2.506 18.6297 1.906 17.9997 1.486 17.1957C1.066 16.4037 0.855999 15.5157 0.855999 14.5317ZM3.52 14.5317C3.52 15.1197 3.736 15.6177 4.168 16.0257C4.6 16.4457 5.218 16.6557 6.022 16.6557C6.826 16.6557 7.444 16.4517 7.876 16.0437C8.308 15.6477 8.524 15.1557 8.524 14.5677C8.524 13.9677 8.308 13.4697 7.876 13.0737C7.456 12.6777 6.838 12.4797 6.022 12.4797C5.218 12.4797 4.6 12.6717 4.168 13.0557C3.736 13.4517 3.52 13.9437 3.52 14.5317ZM14.32 24.4987L0.999999 24.4987L0.999999 21.4207L14.32 21.4207L14.32 24.4987ZM14.32 29.8073L0.999999 29.8073L0.999999 26.7293L14.32 26.7293L14.32 29.8073ZM0.855998 36.6099C0.855998 35.6259 1.066 34.7379 1.486 33.9459C1.906 33.1659 2.506 32.5479 3.286 32.0919C4.066 31.6479 4.978 31.4259 6.022 31.4259C7.054 31.4259 7.96 31.6539 8.74 32.1099C9.532 32.5659 10.138 33.1899 10.558 33.9819C10.978 34.7739 11.188 35.6619 11.188 36.6459C11.188 37.6299 10.978 38.5179 10.558 39.3099C10.138 40.1019 9.532 40.7259 8.74 41.1819C7.96 41.6379 7.054 41.8659 6.022 41.8659C4.99 41.8659 4.078 41.6319 3.286 41.1639C2.506 40.7079 1.906 40.0779 1.486 39.2739C1.066 38.4819 0.855998 37.5939 0.855998 36.6099ZM3.52 36.6099C3.52 37.1979 3.736 37.6959 4.168 38.1039C4.6 38.5239 5.218 38.7339 6.022 38.7339C6.826 38.7339 7.444 38.5299 7.876 38.1219C8.308 37.7259 8.524 37.2339 8.524 36.6459C8.524 36.0459 8.308 35.5479 7.876 35.1519C7.456 34.7559 6.838 34.5579 6.022 34.5579C5.218 34.5579 4.6 34.7499 4.168 35.1339C3.736 35.5299 3.52 36.0219 3.52 36.6099ZM11.044 57.9168L0.999998 55.1988L0.999998 51.7968L7.516 50.2128L0.999998 48.5748L0.999998 45.1908L11.044 42.4548L11.044 45.5328L3.862 46.9548L11.044 48.6468L11.044 51.9048L3.898 53.6148L11.044 55.0188L11.044 57.9168ZM11.044 72.8231L0.999997 72.8231L0.999997 69.7451L2.368 69.7451C1.924 69.4331 1.564 69.0071 1.288 68.4671C1.024 67.9391 0.891997 67.3511 0.891997 66.7031C0.891997 65.9351 1.06 65.2571 1.396 64.6691C1.744 64.0811 2.242 63.6251 2.89 63.3011C3.538 62.9771 4.3 62.8151 5.176 62.8151L11.044 62.8151L11.044 65.8751L5.59 65.8751C4.918 65.8751 4.396 66.0491 4.024 66.3971C3.652 66.7451 3.466 67.2131 3.466 67.8011C3.466 68.4011 3.652 68.8751 4.024 69.2231C4.396 69.5711 4.918 69.7451 5.59 69.7451L11.044 69.7451L11.044 72.8231ZM0.855996 79.12C0.855997 78.244 1.006 77.464 1.306 76.78C1.606 76.096 2.014 75.556 2.53 75.16C3.058 74.764 3.646 74.542 4.294 74.494L4.294 77.536C3.946 77.572 3.664 77.734 3.448 78.022C3.232 78.31 3.124 78.664 3.124 79.084C3.124 79.468 3.196 79.762 3.34 79.966C3.496 80.182 3.694 80.29 3.934 80.29C4.222 80.29 4.432 80.14 4.564 79.84C4.708 79.54 4.864 79.054 5.032 78.382C5.2 77.662 5.374 77.062 5.554 76.582C5.746 76.102 6.04 75.688 6.436 75.34C6.844 74.992 7.39 74.818 8.074 74.818C8.65 74.818 9.172 74.974 9.64 75.286C10.12 75.61 10.498 76.078 10.774 76.69C11.05 77.314 11.188 78.052 11.188 78.904C11.188 80.164 10.876 81.154 10.252 81.874C9.628 82.606 8.8 83.026 7.768 83.134L7.768 80.29C8.116 80.242 8.392 80.086 8.596 79.822C8.8 79.57 8.902 79.234 8.902 78.814C8.902 78.454 8.83 78.178 8.686 77.986C8.554 77.794 8.368 77.698 8.128 77.698C7.84 77.698 7.624 77.848 7.48 78.148C7.336 78.46 7.192 78.94 7.048 79.588C6.856 80.332 6.664 80.938 6.472 81.406C6.292 81.874 5.992 82.282 5.572 82.63C5.164 82.99 4.612 83.176 3.916 83.188C3.328 83.188 2.8 83.02 2.332 82.684C1.876 82.36 1.516 81.886 1.252 81.262C0.987996 80.65 0.855996 79.936 0.855996 79.12Z" fill="white"/>
</svg>
